inDegrees=yes
name=ik_Shooting_orientations.mot
DataType=double
version=3
OpenSimVersion=4.3-2021-08-27-4bc7ad9
endheader
time	pelvis_tilt	pelvis_list	pelvis_rotation	pelvis_tx	pelvis_ty	pelvis_tz	hip_flexion_r	hip_adduction_r	hip_rotation_r	knee_angle_r	knee_angle_r_beta	ankle_angle_r	subtalar_angle_r	mtp_angle_r	hip_flexion_l	hip_adduction_l	hip_rotation_l	knee_angle_l	knee_angle_l_beta	ankle_angle_l	subtalar_angle_l	mtp_angle_l	lumbar_extension	lumbar_bending	lumbar_rotation	arm_flex_r	arm_add_r	arm_rot_r	elbow_flex_r	pro_sup_r	wrist_flex_r	wrist_dev_r	arm_flex_l	arm_add_l	arm_rot_l	elbow_flex_l	pro_sup_l	wrist_flex_l	wrist_dev_l
8.429999999999865	47.11461097247982	52.1326212875745	12.3955722649474	0	0.9399999999999999	0	119.9899143729627	-49.99719427261746	39.99642987679948	34.861676122955	0.6084510311094563	-4.449340048256884	0	0	-29.9947117498934	-45.0322931649135	3.38921460292028	34.861676122955	0.6084510311094563	-4.449340048256884	0	0	0	0	0	0	-5.793959031684889	0	44.34310421386551	36.15437809378633	0	0	0	-5.793959031684889	0	44.34310421386551	36.15437809378633	0	0
8.439999999999864	47.27519346660859	52.11900829944514	12.20937685770481	0	0.9399999999999999	0	119.9899176946558	-49.99719372006892	39.99642359609584	34.86846251658049	0.6085694760225575	-4.450039367532167	0	0	-29.99468910167764	-45.02248281085753	3.285715683486083	34.86846251658049	0.6085694760225575	-4.450039367532167	0	0	0	0	0	0	-5.795309871675399	0	44.35344485442944	36.16148440610979	0	0	0	-5.795309871675399	0	44.35344485442944	36.16148440610979	0	0
8.449999999999864	56.48954389230613	54.32409543879731	6.103848582794927	0	0.9399999999999999	0	119.9768814201634	-49.99699117963749	39.99711182248804	34.90706993601226	0.6092433026073402	-4.454020290149074	0	0	-29.99503162582768	-47.00119993543111	9.166789199844949	34.90706993601226	0.6092433026073402	-4.454020290149074	0	0	0	0	0	0	-5.802996924781572	0	44.41254887967271	36.20206472059647	0	0	0	-5.802996924781572	0	44.41254887967271	36.20206472059647	0	0
8.459999999999864	49.78009099496278	43.11580657899367	11.18076104789187	0	0.9399999999999999	0	119.9803413679613	-49.99760694698467	39.99626986244452	34.96393638679467	0.6102358094074166	-4.459844846297173	0	0	-29.99467963649327	-49.95073948465581	-0.4197910808856976	34.96393638679467	0.6102358094074166	-4.459844846297173	0	0	0	0	0	0	-5.814338933676147	0	44.49960887935254	36.26165052155145	0	0	0	-5.814338933676147	0	44.49960887935254	36.26165052155145	0	0
8.469999999999864	57.19632646930651	45.12079142981875	-0.570106845366617	0	0.9399999999999999	0	119.9340130686375	-49.99693800045799	39.99655550208227	34.990070380293	0.6106919336406572	-4.462532948651929	0	0	-29.99598416851382	-47.94676688748177	1.239752843082381	34.990070380293	0.6106919336406572	-4.462532948651929	0	0	0	0	0	0	-5.81955578927407	0	44.53969470458725	36.28912631236379	0	0	0	-5.81955578927407	0	44.53969470458725	36.28912631236379	0	0
8.479999999999864	57.08614890125556	45.09033300097958	-0.6865417486899295	0	0.9399999999999999	0	119.9353062689954	-49.99693556378828	39.99653089255714	35.00308278291332	0.610919042909977	-4.463865194037631	0	0	-29.99600246255514	-47.39618350746854	0.6392109266442	35.00308278291332	0.610919042909977	-4.463865194037631	0	0	0	0	0	0	-5.822155596598841	0	44.55961679194361	36.30275816387645	0	0	0	-5.822155596598841	0	44.55961679194361	36.30275816387645	0	0
8.489999999999863	47.55983420962708	51.95120598814611	11.32463202369851	0	0.9399999999999999	0	119.9897757393035	-49.99720556115017	39.99639078827033	35.04692531444719	0.6116842394376524	-4.468351247181375	0	0	-29.99462574276825	-44.18479292873818	2.192394890084365	35.04692531444719	0.6116842394376524	-4.468351247181375	0	0	0	0	0	0	-5.830920807014702	0	44.62685825399095	36.34873496533187	0	0	0	-5.830920807014702	0	44.62685825399095	36.34873496533187	0	0
8.499999999999863	17.97119293576995	60.93101100845249	36.95055852066164	0	0.9399999999999999	0	119.9965186874213	-49.99702782926174	39.99481038682825	35.14480646065121	0.6133925877145385	-4.478134698575932	0	0	-29.98871374354283	-31.60409413868208	1.363404182587204	35.14480646065121	0.6133925877145385	-4.478134698575932	0	0	0	0	0	0	-5.850564119578839	0	44.77633361881441	36.44993515120459	0	0	0	-5.850564119578839	0	44.77633361881441	36.44993515120459	0	0
8.509999999999863	47.66744441403091	51.95217647013469	11.02342942388495	0	0.9399999999999999	0	119.9897301282809	-49.99721319807811	39.99637373466347	35.51283953094003	0.6198159765473021	-4.511277680191679	0	0	-29.99459020197017	-43.97495460573433	1.900687799576551	35.51283953094003	0.6198159765473021	-4.511277680191679	0	0	0	0	0	0	-5.92519428307842	0	45.32335804663119	36.80498337187606	0	0	0	-5.92519428307842	0	45.32335804663119	36.80498337187606	0	0
8.519999999999863	47.80892186241854	51.90778761667264	10.83899955712791	0	0.9399999999999999	0	119.9896244535454	-49.99721067490793	39.99637693110525	35.52012912676443	0.6199432039955776	-4.511974701113997	0	0	-29.99454956582517	-44.02579213446504	1.797459487231877	35.52012912676443	0.6199432039955776	-4.511974701113997	0	0	0	0	0	0	-5.926677329511663	0	45.33441796279534	36.81232612580745	0	0	0	-5.926677329511663	0	45.33441796279534	36.81232612580745	0	0
8.529999999999863	47.84711291078884	51.90832552271632	10.68141421406745	0	0.9399999999999999	0	119.989602492455	-49.99721587061375	39.9963674325391	35.52729880802487	0.6200683385398909	-4.512660632169099	0	0	-29.99453284045968	-43.87679014960636	1.648047410863658	35.52729880802487	0.6200683385398909	-4.512660632169099	0	0	0	0	0	0	-5.928136243014282	0	45.34530275670246	36.81955333899685	0	0	0	-5.928136243014282	0	45.34530275670246	36.81955333899685	0	0
8.539999999999862	50.34768251335831	42.82716735738211	10.06946804553673	0	0.9399999999999999	0	119.9779186445021	-49.99762550079292	39.99625302677631	35.5642986167482	0.6207141070247211	-4.51617838440519	0	0	-29.99446818009677	-49.93661458862465	-1.287959010081767	35.5642986167482	0.6207141070247211	-4.51617838440519	0	0	0	0	0	0	-5.935668356856555	0	45.40155794206191	36.85678376411444	0	0	0	-5.935668356856555	0	45.40155794206191	36.85678376411444	0	0
8.549999999999862	48.03375809090434	51.84205338067247	10.38735875626467	0	0.9399999999999999	0	119.9895020728853	-49.99721773147364	39.99636257110321	35.62111995383658	0.6217058264422989	-4.521562074622437	0	0	-29.99447179523998	-43.8149188991716	1.489896834009618	35.62111995383658	0.6217058264422989	-4.521562074622437	0	0	0	0	0	0	-5.947252066995634	0	45.4879834492117	36.91388394015917	0	0	0	-5.947252066995634	0	45.4879834492117	36.91388394015917	0	0
8.559999999999862	51.01825752556644	53.02420524836493	5.306084641189832	0	0.9399999999999999	0	119.9884397438791	-49.99689172582821	39.99641590268757	35.63065221908086	0.621872195855985	-4.522458234212482	0	0	-29.99519429498487	-41.45598399005031	1.103923299718746	35.63065221908086	0.621872195855985	-4.522458234212482	0	0	0	0	0	0	-5.949198337902454	0	45.50244070269382	36.92340780494581	0	0	0	-5.949198337902454	0	45.50244070269382	36.92340780494581	0	0
8.569999999999862	51.14502573175858	53.01187925718597	5.177679946308066	0	0.9399999999999999	0	119.988433196487	-49.99689635906059	39.99640929807658	35.63746838410268	0.6219911603779749	-4.523098868447148	0	0	-29.99518079040345	-41.41099107017255	1.173845270645224	35.63746838410268	0.6219911603779749	-4.523098868447148	0	0	0	0	0	0	-5.950590666081125	0	45.51276272814019	36.93020915295561	0	0	0	-5.950590666081125	0	45.51276272814019	36.93020915295561	0	0
8.579999999999862	57.4373018972899	44.8750036493128	-2.078664769679064	0	0.9399999999999999	0	119.9263332447686	-49.99695005713595	39.99647294313529	35.67193208843528	0.6225926654910127	-4.526335209920764	0	0	-29.99592470185026	-46.27860970641041	-0.8662237946259783	35.67193208843528	0.6225926654910127	-4.526335209920764	0	0	0	0	0	0	-5.957632267047821	0	45.56513101433088	36.9646730875973	0	0	0	-5.957632267047821	0	45.56513101433088	36.9646730875973	0	0
8.589999999999861	51.28360394261963	52.94780983705046	4.883487332561353	0	0.9399999999999999	0	119.9883678060999	-49.99690255081005	39.99640206249672	35.70682306371282	0.6232016278888377	-4.529602979557368	0	0	-29.99515746912299	-41.31551462731908	1.133665162894002	35.70682306371282	0.6232016278888377	-4.529602979557368	0	0	0	0	0	0	-5.96476880943024	0	45.6181588314131	36.99952630483851	0	0	0	-5.96476880943024	0	45.6181588314131	36.99952630483851	0	0
8.599999999999861	51.38799022553981	52.89972556328798	4.69983130266486	0	0.9399999999999999	0	119.9882732821628	-49.9969000652272	39.99639520622662	35.71356358537967	0.6233192721852263	-4.530226911136182	0	0	-29.99512643718715	-41.13195035960437	0.8503967737462691	35.71356358537967	0.6233192721852263	-4.530226911136182	0	0	0	0	0	0	-5.966149486585808	0	45.62833537322013	37.00618935845057	0	0	0	-5.966149486585808	0	45.62833537322013	37.00618935845057	0	0
8.609999999999861	48.53065718431537	51.66584649599156	9.403508983460943	0	0.9399999999999999	0	119.9892698715944	-49.99722362688825	39.99632349594506	35.72597113530338	0.6235358247835004	-4.531383414252564	0	0	-29.99433338467297	-43.03976966946478	0.5697911273108677	35.72597113530338	0.6235358247835004	-4.531383414252564	0	0	0	0	0	0	-5.96869056481063	0	45.64716481824165	37.01854221733775	0	0	0	-5.96869056481063	0	45.64716481824165	37.01854221733775	0	0
8.619999999999861	48.65060456119411	51.64272338677806	9.263232970630046	0	0.9399999999999999	0	119.9892871502503	-49.99722278148123	39.99631326085225	35.73261119329518	0.6236517156579808	-4.531999713777186	0	0	-29.99431338894077	-42.98881806779064	0.608266243669122	35.73261119329518	0.6236517156579808	-4.531999713777186	0	0	0	0	0	0	-5.970051264001935	0	45.65721188115342	37.02512522929067	0	0	0	-5.970051264001935	0	45.65721188115342	37.02512522929067	0	0
8.62999999999986	48.60549861198074	51.59853898113273	9.140163034162978	0	0.9399999999999999	0	119.9893495527577	-49.9972261222027	39.99628976938045	35.7389346941457	0.6237620815680751	-4.532583755383453	0	0	-29.99433166880645	-42.40827695112272	0.1446860270395237	35.7389346941457	0.6237620815680751	-4.532583755383453	0	0	0	0	0	0	-5.97134755534244	0	45.6667628857717	37.0313716793174	0	0	0	-5.97134755534244	0	45.6667628857717	37.0313716793174	0	0
8.63999999999986	48.67556689221288	51.54968727970304	9.011583636371633	0	0.9399999999999999	0	119.9893223176342	-49.99722824183679	39.99628707645925	35.74555360978904	0.6238776034389631	-4.53319798683404	0	0	-29.99431585227078	-42.34167288463972	0.09519470104671626	35.74555360978904	0.6238776034389631	-4.53319798683404	0	0	0	0	0	0	-5.97270443074737	0	45.67678400212832	37.0379362074104	0	0	0	-5.97270443074737	0	45.67678400212832	37.0379362074104	0	0
8.64999999999986	42.9928358242726	58.31681098590855	18.23115518902274	0	0.9399999999999999	0	119.9926829398467	-49.99729472565139	39.99659257828684	35.7743502127045	0.6243801989732274	-4.535873915111982	0	0	-29.99213341837991	-39.65269866545976	4.774123139333017	35.7743502127045	0.6243801989732274	-4.535873915111982	0	0	0	0	0	0	-5.978608760375708	0	45.72053893178946	37.06659206690104	0	0	0	-5.978608760375708	0	45.72053893178946	37.06659206690104	0	0
8.65999999999986	48.81342516715726	51.49420646926618	8.71473996268675	0	0.9399999999999999	0	119.9893070974362	-49.99723053249222	39.99626565910989	35.80187272818883	0.6248605574868599	-4.538416889535531	0	0	-29.99428109242589	-41.96869569531603	-0.4461390916190192	35.80187272818883	0.6248605574868599	-4.538416889535531	0	0	0	0	0	0	-5.984257380971741	0	45.76231809940271	37.09388804639861	0	0	0	-5.984257380971741	0	45.76231809940271	37.09388804639861	0	0
8.66999999999986	56.71299442933573	52.85568534492526	7.577344411029443	0	0.9399999999999999	0	119.970053465219	-49.99737201565865	39.99712881423501	35.81510901834889	0.6250915743309023	-4.53964300701943	0	0	-29.99379695039078	-46.62465997269796	6.662251450148802	35.81510901834889	0.6250915743309023	-4.53964300701943	0	0	0	0	0	0	-5.986975718808947	0	45.78243338982049	37.10704211510427	0	0	0	-5.986975718808947	0	45.78243338982049	37.10704211510427	0	0
8.679999999999859	47.36368411709702	59.83393647929978	-1.454547216782671	0	0.9399999999999999	0	119.993882635899	-49.99538794001238	39.9952729914143	35.83929978131193	0.6255137827931768	-4.541885148654368	0	0	-29.99571656104983	-27.03555972160651	-6.0238948193472	35.83929978131193	0.6255137827931768	-4.541885148654368	0	0	0	0	0	0	-5.991946662040767	0	45.81924356095969	37.1311124676858	0	0	0	-5.991946662040767	0	45.81924356095969	37.1311124676858	0	0
